<?xml version="1.0" standalone="no"?>
<!DOCTYPE svg PUBLIC "-//W3C//DTD SVG 20010904//EN"
 "http://www.w3.org/TR/2001/REC-SVG-20010904/DTD/svg10.dtd">
<svg version="1.0" xmlns="http://www.w3.org/2000/svg"
 width="560.000000pt" height="560.000000pt" viewBox="0 0 560.000000 560.000000"
 preserveAspectRatio="xMidYMid meet">
<metadata>
Created by potrace 1.11, written by Peter Selinger 2001-2013
</metadata>
<g transform="translate(0.000000,560.000000) scale(0.100000,-0.100000)"
fill="#000000" stroke="none">
<path d="M3115 5244 c-51 -38 -212 -73 -485 -104 -294 -34 -387 -60 -532 -146
-274 -165 -400 -361 -458 -711 -19 -113 -21 -160 -17 -359 4 -245 13 -304 47
-304 31 0 48 39 60 135 15 122 43 243 81 351 56 159 90 213 241 372 l138 147
503 6 c351 4 524 9 575 19 82 15 89 12 143 -66 16 -23 69 -74 118 -113 208
-166 260 -268 301 -584 11 -87 28 -181 38 -210 14 -44 21 -52 44 -55 26 -3 26
-3 32 80 31 460 12 701 -73 905 -52 127 -117 201 -288 335 -57 44 -103 82
-103 86 0 4 10 36 22 71 21 60 22 64 5 76 -16 11 -31 9 -99 -16 -44 -16 -82
-28 -85 -26 -2 2 1 17 7 32 23 62 -4 69 -92 25 -70 -36 -84 -38 -64 -8 9 12
16 35 16 50 0 24 -4 28 -27 28 -16 0 -37 -7 -48 -16z"/>
<path d="M2118 3821 c-74 -24 -139 -63 -172 -102 -25 -29 -43 -75 -34 -84 2
-3 29 5 59 16 98 38 245 61 399 65 80 2 146 8 148 13 2 5 -12 21 -31 35 -86
66 -261 93 -369 57z"/>
<path d="M3275 3826 c-27 -7 -63 -19 -80 -25 -40 -16 -97 -60 -93 -72 2 -5 68
-11 148 -13 154 -4 301 -27 399 -65 30 -11 57 -19 59 -16 9 9 -9 55 -34 84
-79 95 -259 142 -399 107z"/>
<path d="M2194 3446 c-30 -30 -34 -40 -34 -86 0 -46 4 -56 34 -86 30 -30 40
-34 86 -34 46 0 56 4 86 34 30 30 34 40 34 86 0 46 -4 56 -34 86 -30 30 -40
34 -86 34 -46 0 -56 -4 -86 -34z"/>
<path d="M3234 3446 c-30 -30 -34 -40 -34 -86 0 -46 4 -56 34 -86 30 -30 40
-34 86 -34 46 0 56 4 86 34 30 30 34 40 34 86 0 46 -4 56 -34 86 -30 30 -40
34 -86 34 -46 0 -56 -4 -86 -34z"/>
<path d="M2565 2978 c13 -44 41 -73 98 -102 49 -24 69 -29 137 -29 68 0 88 5
137 29 57 29 85 58 98 102 l6 22 -241 0 -241 0 6 -22z"/>
<path d="M2430 2645 c-17 -20 -6 -83 26 -151 35 -75 107 -146 183 -183 59 -28
74 -31 162 -31 92 0 101 2 169 36 106 54 189 164 206 275 12 73 -39 95 -69 30
-12 -27 -28 -43 -49 -50 -19 -7 -118 -11 -248 -11 -130 0 -229 4 -248 11 -21
7 -37 23 -49 50 -14 30 -24 39 -44 39 -15 0 -32 -7 -39 -15z"/>
<path d="M2215 1930 c-16 -5 -55 -13 -85 -20 -88 -19 -181 -50 -241 -82 -111
-58 -195 -169 -207 -273 -4 -41 -6 -43 -80 -79 -318 -157 -570 -431 -703 -763
-41 -101 -45 -117 -74 -253 -21 -96 -25 -141 -25 -287 l0 -173 630 0 630 0 0
516 c0 284 3 514 8 512 4 -2 35 -17 69 -33 l62 -30 1 -482 0 -483 1300 0 1300
0 0 173 c0 146 -4 191 -25 287 -29 136 -33 152 -74 253 -133 332 -385 606
-703 763 -74 36 -76 38 -80 79 -12 104 -96 215 -207 273 -60 32 -153 63 -241
82 -30 6 -71 16 -91 21 -20 5 -53 9 -73 9 l-36 0 0 -210 c0 -115 -5 -233 -11
-262 -51 -245 -290 -411 -531 -370 -196 34 -347 178 -387 370 -6 29 -11 147
-11 262 l0 210 -42 -1 c-24 -1 -56 -5 -73 -9z m1325 -1310 l0 -411 -25 -24
c-13 -14 -33 -25 -45 -25 -12 0 -32 11 -45 25 l-25 24 1 378 0 378 62 31 c34
17 65 32 70 33 4 0 7 -184 7 -409z"/>
</g>
</svg>
